<?xml version="1.0" standalone="no"?>
<!DOCTYPE svg PUBLIC "-//W3C//DTD SVG 1.1//EN" "http://www.w3.org/Graphics/SVG/1.1/DTD/svg11.dtd">
<svg viewBox="0 0 1024 1024" version="1.1" xmlns="http://www.w3.org/2000/svg" xmlns:xlink="http://www.w3.org/1999/xlink  width="20" height="20"">
  <path
    d="M923.306667 554.666667a42.666667 42.666667 0 0 0-44.8-5.973334 343.466667 343.466667 0 0 1-143.786667 31.146667 347.733333 347.733333 0 0 1-347.306667-345.6 366.506667 366.506667 0 0 1 10.666667-85.333333A42.666667 42.666667 0 0 0 341.333333 100.693333a432.64 432.64 0 1 0 597.333334 498.773334 42.666667 42.666667 0 0 0-15.36-44.8z m-405.333334 285.44A347.306667 347.306667 0 0 1 302.08 222.72v11.52a433.066667 433.066667 0 0 0 432.64 432.64 417.706667 417.706667 0 0 0 89.6-9.386667 346.026667 346.026667 0 0 1-306.346667 184.32z" fill="currentColor"></path>
</svg>