<svg viewBox="0 0 1152 1024" version="1.1" xmlns="http://www.w3.org/2000/svg" width="16" height="16">
  <path
    d="M562.816 32L616.128 128H960a160 160 0 0 1 159.68 149.504l0.32 10.496V832a160 160 0 0 1-160 160H192A160 160 0 0 1 32 832V192A160 160 0 0 1 192 32h370.816z m-37.696 64H192A96 96 0 0 0 96 192v640A96 96 0 0 0 192 928h768a96 96 0 0 0 96-96V384h-370.816L525.12 96zM448 384a192 192 0 0 1 170.24 280.832l137.728 110.208-39.936 49.92-136.512-109.12A192 192 0 1 1 448 384z m0 64a128 128 0 1 0 0 256 128 128 0 0 0 0-256z m512-256h-308.288l71.104 128H1056v-32a96 96 0 0 0-86.784-95.552L960 192z"
    fill="currentColor"></path>
</svg>