<svg viewBox="0 0 1024 1024" version="1.1" xmlns="http://www.w3.org/2000/svg" width="40" height="40">
  <path
    d="M73.142857 208.822857v606.354286c0 54.564571 43.885714 99.108571 97.499429 99.108571H365.714286v-99.108571H203.190857a32.768 32.768 0 0 1-32.548571-32.987429V241.810286c0-18.212571 14.628571-32.987429 32.548571-32.987429H365.714286V109.714286H170.642286C117.028571 109.714286 73.142857 154.331429 73.142857 208.822857z m877.714286 0v606.354286c0 54.564571-43.885714 99.108571-97.499429 99.108571H658.285714v-99.108571h162.523429a32.768 32.768 0 0 0 32.548571-32.987429V241.810286a32.768 32.768 0 0 0-32.548571-32.987429H658.285714V109.714286h195.072C906.971429 109.714286 950.857143 154.331429 950.857143 208.822857zM512 987.428571c30.281143 0 54.857143-22.162286 54.857143-49.517714V86.089143C566.857143 58.733714 542.281143 36.571429 512 36.571429s-54.857143 22.162286-54.857143 49.517714v851.821714c0 27.355429 24.576 49.517714 54.857143 49.517714z"
    fill="currentColor"></path>
</svg>