<svg viewBox="0 0 1024 1024" version="1.1" xmlns="http://www.w3.org/2000/svg" width="20" height="20">
  <path
    d="M704 224H320c-158.784 0-288 129.216-288 288 0 158.816 129.216 288 288 288h384c158.816 0 288-129.184 288-288 0-158.784-129.184-288-288-288z m0 512H320c-123.52 0-224-100.512-224-224 0-123.52 100.48-224 224-224h384c123.488 0 224 100.48 224 224 0 123.488-100.512 224-224 224z"
    fill="currentColor"></path>
  <path
    d="M320 320c-105.888 0-192 86.112-192 192s86.112 192 192 192 192-86.112 192-192-86.112-192-192-192z m0 320c-70.592 0-128-57.408-128-128s57.408-128 128-128 128 57.408 128 128-57.408 128-128 128z"
    fill="currentColor"></path>
</svg>