<svg viewBox="0 0 1024 1024" version="1.1" xmlns="http://www.w3.org/2000/svg"
  p-id="28593" width="16" height="16">
  <path d="M1024 950.4h-208V358.4H1024v592z m-144-64H960V422.4h-80v464z" fill="currentColor"></path>
  <path
    d="M432 950.4c-54.4 0-105.6-41.6-118.4-99.2-3.2-16-16-112-44.8-288H105.6c-57.6 0-105.6-48-105.6-105.6C0 400 48 352 105.6 352H544c-9.6-9.6-19.2-22.4-32-32-35.2-35.2-80-80-80-137.6 0-70.4 28.8-99.2 51.2-108.8 28.8-12.8 60.8-6.4 89.6 19.2 28.8 22.4 124.8 112 297.6 268.8l9.6 9.6v572.8H441.6c-3.2 6.4-6.4 6.4-9.6 6.4zM102.4 422.4c-22.4 0-38.4 19.2-38.4 41.6s19.2 41.6 41.6 41.6h220.8l3.2 28.8c28.8 188.8 44.8 294.4 48 310.4 6.4 28.8 32 48 64 44.8h377.6V406.4c-163.2-150.4-259.2-236.8-284.8-259.2-9.6-9.6-19.2-9.6-22.4-9.6-3.2 0-12.8 16-12.8 51.2 0 32 32 64 60.8 92.8 32 32 67.2 67.2 67.2 108.8v9.6l-6.4 9.6c-9.6 12.8-9.6 12.8-144 12.8H102.4z"
    fill="currentColor"></path>
</svg>